<svg width="30" height="30" viewBox="0 0 30 30" fill="none" xmlns="http://www.w3.org/2000/svg">
<rect width="30" height="30" rx="2" fill="white"/>
<path d="M14.8575 10.6953C12.5995 10.6953 10.7285 12.534 10.7285 14.8243C10.7285 17.1147 12.5672 18.9534 14.8575 18.9534C17.1479 18.9534 18.9866 17.0824 18.9866 14.8243C18.9866 12.5663 17.1156 10.6953 14.8575 10.6953ZM14.8575 17.4695C13.4059 17.4695 12.2124 16.276 12.2124 14.8243C12.2124 13.3727 13.4059 12.1792 14.8575 12.1792C16.3092 12.1792 17.5027 13.3727 17.5027 14.8243C17.5027 16.276 16.3092 17.4695 14.8575 17.4695Z" fill="#7481FF"/>
<path d="M19.1503 11.5341C19.667 11.5341 20.0858 11.1152 20.0858 10.5986C20.0858 10.0819 19.667 9.66309 19.1503 9.66309C18.6337 9.66309 18.2148 10.0819 18.2148 10.5986C18.2148 11.1152 18.6337 11.5341 19.1503 11.5341Z" fill="#7481FF"/>
<path d="M21.5671 8.17951C20.7284 7.30855 19.5348 6.85693 18.18 6.85693H11.5348C8.72839 6.85693 6.85742 8.7279 6.85742 11.5344V18.1473C6.85742 19.5344 7.30903 20.7279 8.21226 21.5989C9.08323 22.4376 10.2445 22.8569 11.5671 22.8569H18.1477C19.5348 22.8569 20.6961 22.4053 21.5348 21.5989C22.4058 20.7602 22.8574 19.5666 22.8574 18.1795V11.5344C22.8574 10.1795 22.4058 9.01822 21.5671 8.17951ZM21.4381 18.1795C21.4381 19.1795 21.0832 19.986 20.5026 20.5344C19.9219 21.0827 19.1155 21.3731 18.1477 21.3731H11.5671C10.5994 21.3731 9.79291 21.0827 9.21226 20.5344C8.63162 19.9537 8.34129 19.1473 8.34129 18.1473V11.5344C8.34129 10.5666 8.63162 9.76016 9.21226 9.17951C9.76065 8.63113 10.5994 8.3408 11.5671 8.3408H18.2123C19.18 8.3408 19.9865 8.63113 20.5671 9.21177C21.1155 9.79242 21.4381 10.5989 21.4381 11.5344V18.1795Z" fill="#7481FF"/>
</svg>
